<svg xmlns="http://www.w3.org/2000/svg" version="1.1" xmlns:xlink="http://www.w3.org/1999/xlink" xmlns:svgjs="http://svgjs.dev/svgjs" viewBox="0 0 1422 800" opacity="1"><defs><linearGradient x1="50%" y1="0%" x2="50%" y2="100%" id="ccchaos-grad"><stop stop-color="hsl(213, 38%, 34%)" stop-opacity="1" offset="0%"></stop><stop stop-color="hsl(148, 36%, 85%)" stop-opacity="1" offset="100%"></stop></linearGradient></defs><g stroke-width="15.5" stroke="url(#ccchaos-grad)" fill="none" stroke-linecap="round"><path d="M729.53 -35.09C737.27 -33.56 744.85 -31.5 752.26 -29.04 759.66 -26.52 766.88 -23.93 773.92 -21.42 780.93 -19.29 787.75 -17.48 794.37 -16.04 800.95 -15.19 807.32 -14.74 813.46 -14.64 822.5 -15.22 839.27 -16.61 846.99 -16.54 854.35 -15.32 867.65 -8.43 873.58 -2.65 877.4 1.94 880.95 7.1 884.25 12.65 887.52 18.37 890.54 24.2 893.34 29.99 897.45 38.1 904.84 51.56 908.26 56.59 915.37 62.55 927.31 68.59 932.11 71.09 937.71 74.56 951.09 85.48 959.06 93.14 965.02 99.1 971.41 105.73 978.26 112.96 985.63 120.69 993.47 128.88 1001.77 137.44 1010.55 146.28 1019.77 155.32 1029.39 164.46 1039.39 173.64 1049.72 182.77 1060.31 191.79 1071.14 200.65 1082.11 209.29 1093.14 217.68 1104.19 225.79 1115.15 233.61 1125.9 241.14 1136.41 248.34 1146.54 255.26 1156.18 261.95 1165.31 268.3 1173.76 274.46 1181.42 280.46 1188.33 286.18 1194.29 291.82 1199.22 297.4 1204.63 305.46 1208.03 321.58 1205.9 329.81 1203.08 335.25 1199.09 340.87 1193.97 346.71 1188.04 352.48 1181.14 358.49 1173.36 364.77 1165.07 371.01 1156.14 377.54 1146.7 384.37 1137.16 391.19 1127.39 398.33 1117.57 405.82 1108.08 413.31 1098.93 421.07 1090.25 429.1 1082.29 437.14 1075.03 445.47 1068.55 454.08 1063.04 462.72 1058.43 471.64 1054.77 480.83 1052.19 490.04 1050.57 499.51 1049.87 509.21 1050.24 518.9 1051.46 528.78 1053.47 538.81 1056.37 548.75 1059.92 558.75 1063.99 568.74 1068.72 578.52 1073.79 588.17 1079.08 597.56 1084.73 606.57 1090.4 615.16 1095.97 623.21 1101.6 630.66 1106.94 637.39 1111.9 643.25 1125.81 641.8 1106.91 624.69 1097.4 624.43 1090.41 626.73 1082.91 631.03 1074.97 637.54 1066.68 646.37 1058.03 657.49 1049.09 670.82 1039.91 686.03 1030.52 702.91 1020.97 721.04 1011.29 739.72 1001.51 758.52 991.7 776.76 981.84 793.66 971.99 808.66 962.18 821.08 952.4 830.43 942.7 836.27 933.1 838.28 923.57 836.61 914.18 831.17 904.92 822.28 895.76 810.83 886.75 797.22 877.9 782.35 869.15 767.61 860.56 753.67 852.12 741.63 843.78 732.76 835.59 727.58 827.54 726.76 819.59 730.77 811.76 739.49 804.05 752.68 796.42 769.71 788.9 789.65 781.48 811.33 774.11 833.37 766.83 854.38 759.63 872.91 752.47 887.7 745.37 897.68 738.34 902.03 731.33 900.6 724.36 893.29 717.44 880.59 710.53 863.76 703.66 843.79 696.82 822.25 689.99 801.17 683.18 781.97 676.4 766.24 669.62 755.57 662.95 750.65 656.37 751.75 649.8 758.88 643.32 771.17 636.94 787.49 630.56 806.79 624.28 827.19 618.11 847.06 611.93 865.17 605.85 879.82 599.88 889.92 593.9 895.01 588.03 894.45 582.27 888.36 576.5 877.25 570.84 861.77 565.28 842.99 559.72 822.09 554.26 800.35 548.91 779.1 543.54 759.45 538.27 742.5 533.11 729.04 525.37 717.1 510.31 720.47 502.97 733.46 498.05 745.31 493.21 758.21 488.43 771.24 483.59 783.91 478.82 795.02 474.1 803.91 466.92 812.06 452.66 807.48 445.56 794.99 440.73 783.1 435.94 769.04 431.19 753.35 426.33 736.43 421.5 718.92 416.71 701.36 411.83 684.01 406.99 667.47 402.2 652.09 397.32 637.97 392.51 625.47 387.76 614.67 382.95 605.58 378.23 598.23 373.6 592.5 366.66 586.99 353.38 583.6 347.1 584.42 335.41 588.42 319.91 591.56 315.52 590.32 311.41 587.82 304.29 578.57 301.25 571.97 299.32 567.03 297.56 561.53 295.98 555.54 294.4 549.31 292.98 542.68 291.71 535.72 290.43 528.6 289.28 521.24 288.28 513.68 287.25 506.03 286.35 498.25 285.59 490.38 284.8 482.47 284.14 474.51 283.63 466.53 283.09 458.53 282.71 450.52 282.5 442.52 282.28 434.51 282.24 426.59 282.39 418.76 282.56 410.92 282.92 403.15 283.5 395.43 284.1 387.68 284.92 379.96 285.95 372.24 287.02 364.46 288.3 356.65 289.79 348.78 291.32 340.83 293.04 332.78 294.97 324.62 296.9 316.35 299.02 307.93 301.32 299.37 303.6 290.67 306.03 281.82 308.61 272.8 311.16 263.68 313.83 254.42 316.62 245.02 319.36 235.6 322.19 226.11 325.12 216.58 327.99 207.14 330.94 197.76 333.97 188.51 336.94 179.49 339.99 170.72 343.12 162.27 346.19 154.21 349.35 146.59 352.6 139.48 355.81 132.88 359.13 126.87 362.55 121.49 367.72 114.57 378.72 104.49 384.59 101.09 390.68 98.37 403.78 93.73 410.81 91.13 415.64 88.89 420.65 86.28 425.84 83.23 431.13 79.53 436.6 75.32 442.24 70.59 447.98 65.24 453.89 59.47 459.97 53.36 466.14 46.91 472.48 40.37 478.96 33.86 485.53 27.45 492.25 21.37 499.09 15.76 506.01 10.64 513.06 6.19 520.21 2.49 527.43 -0.55 534.74 -2.83 542.14 -4.38 549.61 -5.43 557.14 -5.94 564.74 -6.02 572.39 -6 580.09 -5.85 587.84 -5.72 595.62 -5.94 603.44 -6.42 611.29 -7.26 619.16 -8.7 627.06 -10.56 634.96 -12.81 642.89 -15.57 650.81 -18.57 658.73 -21.68 666.67 -24.92 674.6 -27.98 682.5 -30.69 690.41 -33.07 698.29 -34.85 706.13 -35.93 713.98 -36.41 721.78 -36.12 729.52 -35.09" stroke-dasharray="12 12" transform="rotate(0, 711, 400)" opacity="0.10"></path><path d="M719.24 -19.67C726.5 -17.95 733.6 -15.67 740.52 -12.96 747.44 -10.17 754.18 -7.3 760.73 -4.52 767.26 -2.12 773.6 -0.06 779.73 1.58 788.79 2.86 805.77 2.57 813.68 1.53 821.3 0.34 835.31 0.03 841.71 1.68 847.82 5 858.9 16.42 863.91 24.14 867.19 29.79 870.29 35.72 873.23 41.78 876.21 47.72 879.07 53.51 881.81 59.02 886.04 66.32 894.5 77.51 898.89 81.37 903.7 83.96 914.39 87.51 920.47 89.14 927.35 91.12 943.25 97.75 952.4 102.84 959.07 107 966.13 111.84 973.6 117.33 981.49 123.39 989.78 130.05 998.44 137.25 1007.48 144.91 1016.85 152.98 1026.52 161.39 1036.47 170.08 1046.63 178.97 1056.94 187.97 1067.38 197.06 1077.86 206.14 1088.3 215.16 1098.66 224.11 1108.84 232.91 1118.75 241.54 1128.35 249.99 1137.52 258.23 1146.15 266.26 1154.26 274.06 1161.68 281.65 1168.32 289.04 1174.23 296.21 1179.24 303.21 1183.26 310.08 1186.42 316.75 1188.51 323.32 1189.5 329.85 1189.57 336.21 1188.52 342.56 1186.36 348.95 1183.32 355.22 1179.23 361.56 1174.13 368.01 1168.33 374.38 1161.66 380.89 1154.21 387.57 1146.32 394.21 1137.86 401.05 1128.96 408.1 1119.96 415.14 1110.77 422.41 1101.51 429.94 1092.56 437.47 1083.9 445.17 1075.66 453.05 1068.05 460.92 1061.05 468.97 1054.74 477.16 1049.3 485.35 1044.65 493.67 1040.84 502.1 1038 510.48 1036.02 518.93 1034.88 527.4 1034.71 535.76 1035.32 544.08 1036.66 552.27 1038.84 560.28 1041.63 568.07 1044.95 575.57 1048.91 582.76 1053.22 589.53 1057.8 595.8 1062.78 601.62 1067.84 606.81 1072.88 611.27 1080.56 616.74 1094.48 622.49 1100.29 622.68 1107.58 606.22 1094.17 605.09 1086.57 612.53 1080.86 619.98 1074.63 629.33 1067.93 640.61 1060.87 653.61 1053.41 668.24 1045.6 684.24 1037.53 701.11 1029.18 718.59 1020.6 736.18 1011.85 753.22 1002.93 769.29 993.9 783.82 984.77 796.23 975.58 806.1 966.36 812.98 957.11 816.73 947.88 817.09 938.68 814.03 929.51 808 920.4 799.09 911.38 787.77 902.42 775.08 893.55 761.44 884.81 747.72 876.13 735.17 867.58 724.35 859.16 716.1 850.81 711.39 842.59 710.49 834.5 713.78 826.48 721.42 818.58 733.09 810.81 748.37 803.1 766.52 795.5 786.58 788.01 807.46 780.57 827.89 773.23 846.67 765.99 862.58 758.78 874.65 751.66 882.02 744.62 884.12 737.6 880.97 730.65 872.6 723.77 859.52 716.91 842.94 710.11 823.76 703.36 803.37 696.62 783.59 689.93 765.61 683.29 750.83 676.65 740.64 670.14 735.66 663.74 736.13 657.35 742.11 651.07 752.88 644.9 767.53 638.73 785.17 632.68 804.2 626.73 823.17 620.78 841.05 614.94 856.23 609.21 867.69 603.46 874.89 597.83 877.1 592.31 874.23 586.76 866.59 581.33 854.54 576 838.86 570.65 820.49 565.4 800.48 560.25 779.97 555.08 760 549.99 741.61 545.01 725.68 539.98 712.87 535.04 703.65 530.19 698.22 525.28 696.72 520.45 698.82 515.7 704.07 510.88 712.2 506.13 722.29 501.43 733.56 496.67 745.62 491.95 757.35 487.29 768.06 480.19 781.13 466.04 791.43 458.98 787.54 454.19 781.34 449.42 772.58 444.7 761.61 439.87 748.73 435.08 734.37 430.33 719 425.48 702.87 420.69 686.54 415.94 670.4 411.12 654.59 406.36 639.6 401.67 625.65 396.93 612.76 392.27 601.22 387.7 591.06 383.11 582.25 378.63 574.82 374.26 568.69 367.78 561.91 355.58 554.51 349.91 552.94 339.55 552.33 326.1 550.51 322.37 548.53 315.96 541.56 308.24 525.05 306.28 517.59 305.04 512.33 303.96 506.67 303.02 500.64 302.08 494.52 301.29 488.09 300.64 481.37 299.99 474.61 299.49 467.6 299.14 460.37 298.78 453.12 298.58 445.67 298.56 438.03 298.53 430.39 298.68 422.66 299.02 414.85 299.36 407.04 299.89 399.14 300.61 391.15 301.35 383.16 302.28 375.06 303.41 366.86 304.55 358.64 305.88 350.31 307.4 341.85 308.93 333.36 310.64 324.74 312.52 315.99 314.39 307.21 316.43 298.31 318.61 289.29 320.78 280.28 323.08 271.17 325.51 262 327.9 252.89 330.4 243.76 333 234.66 335.55 225.7 338.2 216.85 340.93 208.14 343.6 199.7 346.35 191.51 349.18 183.63 351.94 176.12 354.78 169.01 357.7 162.37 362.04 153.35 371.08 138.78 375.81 133.27 380.62 128.9 390.84 122.74 396.29 120.52 401.92 118.31 414.03 113.01 420.53 109.35 424.98 106.2 429.61 102.57 434.4 98.43 439.28 93.64 444.33 88.37 449.54 82.65 454.85 76.46 460.31 69.99 465.94 63.35 471.66 56.59 477.53 49.93 483.55 43.52 489.65 37.39 495.9 31.77 502.27 26.77 508.72 22.37 515.29 18.72 521.97 15.86 528.73 13.66 535.58 12.19 542.52 11.4 549.52 11.01 556.61 11.06 563.75 11.42 570.95 11.76 578.21 12.09 585.51 12.29 592.86 12.03 600.25 11.41 607.65 10.36 615.1 8.66 622.56 6.5 630.03 3.92 637.53 0.84 645.03 -2.45 652.51 -5.85 660.02 -9.34 667.5 -12.59 674.96 -15.46 682.43 -17.94 689.86 -19.76 697.24 -20.83 704.63 -21.26 711.96 -20.86 719.23 -19.68" stroke-dasharray="1 16" transform="rotate(4.04, 711, 400)" opacity="0.60"></path><path d="M708.34 -4.26C715.13 -2.37 721.76 0.1 728.23 3.02 734.69 6.05 740.97 9.17 747.08 12.21 753.18 14.88 759.08 17.2 764.8 19.09 773.25 20.68 789.14 20.61 796.56 19.42 803.74 17.82 817.07 16.04 823.23 16.7 829.19 18.93 840.26 28.32 845.42 35.3 848.84 40.63 852.15 46.4 855.36 52.48 858.64 58.63 861.85 64.8 865.02 70.86 869.94 79.29 880.11 93.28 885.51 98.57 891.36 102.4 904.31 107.35 911.55 108.97 916.79 109.82 922.31 110.77 928.13 111.92 934.31 113.19 940.82 114.86 947.66 116.98 954.87 119.47 962.42 122.54 970.3 126.2 978.52 130.37 987.06 135.15 995.89 140.52 1004.99 146.41 1014.34 152.84 1023.88 159.76 1033.59 167.1 1043.43 174.83 1053.32 182.87 1063.24 191.21 1073.1 199.75 1082.85 208.44 1092.44 217.26 1101.78 226.14 1110.79 235 1119.46 243.88 1127.65 252.69 1135.29 261.4 1142.39 270.04 1148.82 278.53 1154.48 286.88 1159.45 295.12 1163.56 303.2 1166.75 311.12 1169.15 318.93 1170.56 326.6 1170.97 334.15 1170.55 341.59 1169.12 348.94 1166.69 356.22 1163.48 363.41 1159.34 370.56 1154.3 377.7 1148.65 384.78 1142.23 391.88 1135.12 399.01 1127.63 406.11 1119.64 413.26 1111.25 420.49 1102.8 427.7 1094.16 435.01 1085.45 442.4 1077.02 449.79 1068.84 457.18 1061.03 464.57 1053.78 471.95 1047.05 479.32 1040.93 486.64 1035.58 493.93 1030.93 501.15 1027.01 508.27 1023.96 515.31 1021.68 522.19 1020.14 528.86 1019.49 535.41 1019.55 541.68 1020.27 547.61 1022.83 556 1031.47 570.08 1037.13 575.5 1043.62 579.78 1057.26 584.5 1063.93 584.94 1086.65 579.41 1079.22 600.21 1073.38 614.52 1068.88 626.05 1063.87 639.01 1058.37 653.25 1052.52 668.39 1046.25 684.3 1039.6 700.64 1032.67 716.85 1025.41 732.68 1017.89 747.64 1010.15 761.22 1002.2 773.07 994.07 782.75 985.81 789.98 977.42 794.45 968.94 795.97 960.38 794.7 951.78 790.51 943.16 783.61 934.51 774.66 925.87 763.81 917.27 751.67 908.68 739.25 900.15 726.95 891.68 715.54 883.25 706.08 874.91 698.95 866.66 694.78 858.46 694.2 850.36 697.3 842.37 704.2 834.42 714.8 826.59 728.69 818.86 745.29 811.18 763.83 803.61 783.39 796.15 802.96 788.72 821.44 781.4 837.81 774.17 851.07 766.98 860.5 759.88 865.44 752.87 865.51 745.88 860.89 738.98 851.66 732.16 838.37 725.35 822.16 718.62 803.82 711.95 784.59 705.3 766.08 698.71 749.28 692.19 735.42 685.67 725.72 679.29 720.7 673.04 720.6 666.78 725.53 660.65 734.88 654.65 747.89 648.64 763.89 642.75 781.47 636.98 799.41 631.2 816.8 625.53 832.19 619.97 844.6 611.67 855.81 595.56 849.47 587.76 832.73 582.55 817.29 577.44 799.61 572.43 780.65 567.38 761.3 562.42 742.53 557.54 725.21 552.62 710.01 547.77 697.56 543 688.23 535.79 681.04 521.59 687.35 514.58 698.68 509.84 708.53 505.15 719.08 500.5 729.71 495.77 740.15 491.07 749.51 486.41 757.31 479.3 765.45 465.09 766.54 457.99 759.29 453.18 751.55 448.41 741.83 443.68 730.46 438.87 717.68 434.1 703.86 429.39 689.39 424.61 674.41 419.9 659.38 415.26 644.59 410.57 630.1 405.97 616.3 401.46 603.34 396.93 591.21 392.5 580.13 388.2 570.13 383.9 561.16 379.73 553.27 375.7 546.4 369.77 537.97 358.79 526.14 353.77 522.06 344.76 516.53 333.34 508.79 330.26 505.54 325.09 497.25 319.16 480.49 317.8 473.35 316.62 465.73 315.06 448.54 314.68 439.05 314.49 432.59 314.47 425.82 314.62 418.74 314.77 411.66 315.1 404.37 315.6 396.88 316.1 389.41 316.79 381.76 317.65 373.93 318.51 366.13 319.55 358.15 320.77 350.03 321.98 341.93 323.37 333.69 324.92 325.32 326.47 317 328.17 308.56 330.02 300.03 331.86 291.58 333.83 283.06 335.94 274.53 338.01 266.1 340.21 257.7 342.51 249.36 344.77 241.2 347.13 233.16 349.58 225.3 351.97 217.7 354.45 210.34 357.01 203.28 359.51 196.56 362.08 190.21 364.72 184.27 368.62 176.17 376.71 162.97 380.91 157.89 389.56 150.76 403.44 143.39 408.47 141.22 413.66 138.45 424.79 130.73 430.76 125.4 434.84 121.07 439.08 116.25 443.48 110.95 447.94 105.11 452.57 98.9 457.35 92.39 462.21 85.61 467.23 78.75 472.39 71.93 477.64 65.22 483.04 58.81 488.57 52.84 494.19 47.33 499.94 42.46 505.82 38.31 511.78 34.82 517.85 32.11 524.04 30.19 530.29 28.87 536.64 28.2 543.09 28.11 549.59 28.31 556.18 28.81 562.83 29.47 569.54 29.98 576.31 30.35 583.13 30.47 589.99 30.05 596.9 29.18 603.83 27.82 610.8 25.79 617.78 23.28 624.78 20.35 631.81 16.94 638.83 13.34 645.85 9.69 652.88 6.01 659.9 2.61 666.89 -0.35 673.89 -2.88 680.85 -4.71 687.76 -5.75 694.68 -6.09 701.54 -5.59 708.33 -4.27" stroke-dasharray="6 14" transform="rotate(8.08, 711, 400)" opacity="0.87"></path><path d="M697.64 11.14C703.98 13.18 710.17 15.83 716.21 18.92 722.24 22.16 728.12 25.5 733.84 28.79 742.32 33.01 758.42 38.43 766.04 39.34 773.46 38.83 787.45 35.78 794.02 34.05 800.43 32.77 812.53 33.57 818.25 36.17 823.92 40.57 834.86 53.93 840.23 62.41 843.88 68.47 847.52 74.75 851.16 81.1 854.94 87.33 858.76 93.38 862.63 99.15 866.69 104.47 870.85 109.36 875.13 113.77 881.97 119.2 896.95 126.8 905.18 129.25 911.05 130.37 917.17 131.36 923.57 132.31 930.27 133.12 937.26 134.07 944.53 135.25 952.1 136.56 959.94 138.24 968.04 140.36 976.41 142.81 985.01 145.78 993.81 149.28 1002.8 153.22 1011.94 157.71 1021.19 162.72 1030.53 168.18 1039.89 174.13 1049.23 180.51 1058.52 187.29 1067.68 194.43 1076.65 201.88 1085.42 209.62 1093.88 217.58 1101.96 225.71 1109.68 234.02 1116.9 242.42 1123.56 250.87 1129.7 259.41 1135.17 267.93 1139.91 276.41 1144.01 284.91 1147.29 293.33 1149.72 301.65 1151.43 309.95 1152.24 318.14 1152.14 326.21 1151.3 334.24 1149.55 342.16 1146.9 349.95 1143.58 357.72 1139.43 365.37 1134.48 372.92 1129.01 380.44 1122.85 387.88 1116.09 395.23 1109.01 402.56 1101.48 409.83 1093.59 417.01 1085.66 424.19 1077.56 431.31 1069.39 438.34 1061.47 445.37 1053.77 452.23 1046.37 458.91 1039.48 465.58 1033.04 472.05 1027.12 478.31 1021.88 484.52 1017.25 490.48 1013.26 496.17 1008.78 504.43 1004.34 519.05 1004.29 525.27 1009.18 534.99 1022.56 544.07 1028.31 545.2 1040.44 545.74 1056.84 545.7 1061.01 546.56 1064.37 548.93 1068.08 558.73 1068.31 566.91 1067.9 573.93 1066.92 582.19 1065.38 591.71 1063.44 602.4 1060.96 614.27 1057.94 627.22 1054.55 640.96 1050.65 655.44 1046.29 670.42 1041.59 685.45 1036.47 700.38 1030.95 714.86 1025.15 728.42 1019 740.83 1012.55 751.69 1005.88 760.7 998.95 767.59 991.79 772.1 984.48 774.23 976.99 773.77 969.36 770.75 961.62 765.55 953.77 758.18 945.86 748.95 937.88 738.64 929.86 727.45 921.83 715.96 913.76 705.14 905.71 695.27 897.69 687.02 889.66 681.19 881.68 678.01 873.76 677.88 865.86 681.15 858.02 687.76 850.26 697.61 842.53 710.44 834.88 725.76 827.33 742.94 819.8 761.2 812.36 779.72 805.02 797.58 797.71 813.86 790.48 827.71 783.36 838.35 776.25 845.28 769.24 847.98 762.31 846.27 755.41 840.41 748.59 830.53 741.85 817.18 735.13 801.44 728.49 783.99 721.92 765.92 715.36 748.64 708.87 732.99 702.46 720.01 696.05 710.79 689.78 705.76 683.64 705.17 677.5 709.12 671.5 717.13 665.62 728.59 659.73 742.96 653.97 759.05 648.32 775.83 642.66 792.52 637.11 807.82 631.68 820.82 623.55 834.32 607.78 836.14 600.12 824.34 595 812.05 589.98 797.14 585.05 780.36 580.07 762.46 575.17 744.28 570.35 726.62 565.47 710.13 560.67 695.5 555.93 683.2 548.76 670.26 534.6 663.45 527.59 668.71 522.85 675.17 518.16 683.1 513.5 691.97 508.75 701.59 504.05 711.12 499.37 720.06 494.61 728.35 489.88 735.24 485.17 740.45 478.01 744.8 463.74 740.16 456.63 731.39 451.85 723.23 447.11 713.54 442.43 702.59 437.69 690.55 433.02 677.73 428.42 664.43 423.79 650.73 419.24 637 414.78 623.46 410.32 610.1 405.96 597.25 401.71 585.03 397.48 573.38 393.37 562.52 389.4 552.48 385.46 543.16 381.67 534.68 378.04 526.98 374.45 519.99 371.03 513.7 367.78 508.03 363.08 500.64 354.68 488.53 351 483.33 344.68 473.96 337.22 459.29 335.42 453.7 333.85 447.83 331.6 434.48 330.91 426.96 330.42 419.09 330.3 401.66 330.68 392.14 330.99 385.69 331.48 379.02 332.13 372.14 332.79 365.27 333.61 358.22 334.59 351 335.58 343.81 336.72 336.48 338.02 329.02 339.32 321.62 340.76 314.13 342.35 306.56 343.92 299.08 345.63 291.57 347.47 284.05 349.28 276.67 351.22 269.32 353.26 262.06 355.27 254.97 357.38 248.02 359.59 241.24 361.75 234.69 363.99 228.38 366.32 222.34 369.75 213.87 376.89 199.12 380.58 192.97 388.02 183.55 399.64 173.74 403.73 171.52 412.22 166.78 425.98 156.85 430.99 151.84 434.4 147.78 437.94 143.26 441.62 138.27 445.34 132.74 449.21 126.8 453.22 120.51 457.28 113.86 461.49 107.02 465.85 100.09 470.27 93.11 474.84 86.27 479.55 79.7 484.33 73.43 489.25 67.65 494.3 62.45 499.43 57.84 504.68 53.95 510.06 50.83 518.29 47.53 535.39 45.25 544.24 45.77 550.22 46.41 556.29 47.2 562.43 48 568.62 48.52 574.87 48.78 581.18 48.68 587.53 47.96 593.93 46.75 600.35 45 606.82 42.58 613.3 39.7 619.8 36.41 626.33 32.7 632.87 28.84 639.4 24.99 645.94 21.16 652.48 17.65 658.99 14.63 665.51 12.1 672 10.3 678.44 9.33 684.89 9.07 691.29 9.68 697.63 11.13" stroke-dasharray="1 2" transform="rotate(12.12, 711, 400)" opacity="0.48"></path><path d="M687.91 26.55C693.82 28.71 699.61 31.5 705.27 34.74 710.92 38.15 716.44 41.69 721.83 45.19 729.83 49.79 745.12 56.05 752.42 57.36 759.56 57.14 773.2 54.17 779.7 52.13 786.11 50.25 798.44 49.08 804.41 50.44 810.39 53.5 822.23 64.42 828.17 72 832.23 77.66 836.32 83.72 840.44 90.03 844.71 96.42 849.05 102.84 853.49 109.16 862.88 120.89 872.83 131.18 883.46 139.68 895.02 145.8 907.45 150.22 920.8 153.4 935.14 155.22 950.4 156.98 966.48 159.31 983.29 162.05 1000.62 166.33 1018.21 172.34 1027.03 175.86 1035.81 179.85 1044.5 184.29 1053.07 189.11 1061.46 194.36 1069.6 200 1077.5 205.99 1085.06 212.31 1092.21 218.92 1098.99 225.81 1105.26 232.93 1110.98 240.22 1116.19 247.72 1120.76 255.35 1124.64 263.04 1127.93 270.88 1130.45 278.74 1132.2 286.59 1133.29 294.53 1133.57 302.42 1133.02 310.24 1131.83 318.12 1129.83 325.9 1127.02 333.57 1123.63 341.27 1119.51 348.85 1114.68 356.29 1109.4 363.75 1103.53 371.07 1097.12 378.24 1090.44 385.42 1083.37 392.44 1075.98 399.29 1068.56 406.16 1060.98 412.85 1053.33 419.34 1045.91 425.84 1038.67 432.06 1031.69 437.99 1025.15 443.91 1019 449.52 1013.3 454.82 1005.91 462.55 994.89 476.21 991.36 482.08 991.77 497.24 1002.14 507.23 1006.96 509.07 1012.26 511.1 1022.91 515.93 1027.95 519.26 1032.7 523.9 1040.4 537.39 1043.15 546.75 1045.78 562.55 1046.49 582.2 1045.23 605.57 1042.68 631.35 1038.15 658.88 1031.78 686.35 1024.2 711.25 1015.01 731.86 1004.45 745.88 993 752.2 980.5 749.82 967.19 738.99 960.34 731.33 953.34 722.32 946.22 712.36 939.02 702.23 931.73 692.12 924.37 682.55 916.97 674.33 909.52 667.67 902.06 663.06 894.58 661.06 887.09 661.76 879.62 665.37 872.15 671.99 864.71 681.44 857.31 693.5 849.92 707.78 842.59 723.76 835.31 740.82 828.05 758.22 820.86 775.23 813.74 791.06 806.63 804.98 799.6 816.3 792.65 824.4 785.72 828.99 778.86 829.69 772.09 826.42 765.32 819.55 758.64 809.22 752.03 795.97 745.43 780.79 738.91 764.26 732.46 747.34 726.02 731.26 719.65 716.72 713.35 704.6 707.05 695.85 700.89 690.86 694.86 689.82 688.83 692.89 682.93 699.65 677.15 709.62 671.36 722.4 665.69 736.99 660.14 752.49 654.57 768.29 649.11 783.23 643.76 796.49 638.39 807.6 633.12 815.72 627.94 820.46 622.74 821.77 617.62 819.39 612.6 813.49 607.54 804.44 602.55 792.55 597.65 778.42 592.71 762.64 587.83 745.89 583.02 728.86 578.16 712.16 573.36 696.43 568.62 682.22 563.82 669.93 559.07 659.91 554.37 652.38 547.24 646.29 533.08 649.77 526.03 657.79 516.43 673.36 506.94 690.13 497.58 704.88 487.93 716.33 478.42 721.45 469.07 719.63 459.5 711.5 450.15 697.15 441.08 678.11 431.93 655.54 423.13 631.18 414.77 606.59 410.61 594.3 406.58 582.34 402.68 570.81 398.81 559.6 395.09 548.95 391.53 538.89 388.01 529.3 384.66 520.32 381.47 511.94 378.34 504.04 375.39 496.69 372.61 489.84 369.9 483.42 367.37 477.41 365.02 471.74 361.7 463.87 356.06 449.49 353.75 442.68 351.7 436.09 348.58 422.74 347.49 415.8 346.64 408.74 345.84 393.67 345.89 385.61 346 380.16 346.28 374.49 346.73 368.61 347.2 362.72 347.83 356.69 348.62 350.54 349.41 344.41 350.36 338.16 351.46 331.84 352.55 325.54 353.79 319.19 355.17 312.81 356.54 306.48 358.04 300.16 359.67 293.86 361.27 287.66 363 281.52 364.84 275.49 367.6 266.69 373.55 250.19 376.71 242.63 379.87 235.62 386.45 223.4 389.87 218.26 396.7 210.1 407.27 200.97 410.94 198.64 415.72 195.2 420.82 191.59 426.25 187.32 431.58 181.31 437.34 173.86 443.53 164.73 449.76 153.55 456.5 140.94 463.75 127.34 471.16 113.25 479.12 99.64 487.61 87.42 491.93 81.98 496.38 77.15 500.97 73.01 507.99 68.13 522.73 62.99 530.41 62.5 538.29 63.06 554.59 65.63 562.98 66.85 568.64 67.2 574.37 67.2 580.16 66.75 585.99 65.64 591.86 64 597.78 61.81 603.73 58.98 609.7 55.71 615.7 52.09 621.73 48.11 627.77 44.03 633.81 40.01 639.86 36.09 645.92 32.55 651.96 29.53 658 27.04 664.03 25.31 670.03 24.41 676.03 24.26 681.99 24.98 687.9 26.54" stroke-dasharray="12 11" transform="rotate(16.16, 711, 400)" opacity="0.87"></path><path d="M679.86 41.96C685.38 44.23 690.81 47.12 696.13 50.48 701.46 54.02 706.67 57.72 711.78 61.41 721.99 67.78 731.78 72.58 741.14 75.27 750.51 75.19 759.5 73.41 768.15 70.74 776.89 67.56 785.38 65.6 793.69 65.74 802.23 68.11 810.75 73.52 819.35 81.78 828.38 92.17 837.67 104.29 847.35 117.25 857.68 129.98 868.58 141.95 880.12 152.59 892.47 161.19 905.57 168.01 919.43 173.24 934.05 176.58 949.37 179.09 965.24 181.3 981.56 183.01 998.13 185.42 1014.67 188.9 1031.02 193.09 1046.79 198.82 1061.58 206.07 1075.32 214.46 1087.43 224.28 1097.52 235.24 1105.72 247.15 1111.37 259.85 1114.21 273.01 1114.75 286.75 1112.36 300.61 1107.07 314.35 1099.79 328.36 1090.05 342.03 1078.21 355.17 1071.94 361.78 1065.32 368.24 1058.41 374.52 1051.48 380.81 1044.41 386.91 1037.28 392.81 1030.33 398.71 1023.54 404.32 1016.98 409.64 1010.79 414.95 1004.94 419.95 999.47 424.66 990.12 434.02 982.69 442.16 977.29 449.12 974.39 456.1 973.46 462.08 974.3 467.29 977.22 472.94 981.35 478.38 986.3 484.12 992.4 491.2 998.57 499.51 1004.43 509.71 1010.41 522.31 1015.43 537.57 1019.22 555.82 1022.36 576.5 1023.9 599.69 1023.76 624.63 1022.59 649.64 1019.65 673.92 1015.03 695.65 1009.36 713.05 1002.15 724.76 993.57 729.42 984.15 727.3 973.61 718.14 962.16 703.15 950.17 685.84 937.51 667.99 924.39 653.07 910.99 645.22 897.32 646 883.53 656.92 869.65 677.74 855.76 706.15 841.98 738.41 828.21 769.61 814.59 794.76 801.19 809.22 787.84 810.8 774.71 798.61 761.84 774.77 755.42 760.22 749.06 744.65 742.76 728.87 736.47 713.96 730.24 700.48 724.07 689.19 717.9 680.92 711.85 675.98 705.94 674.56 700.02 676.82 694.22 682.42 688.53 691 677.13 715.56 666.16 744.52 655.6 771.77 644.94 792.89 634.64 802.87 624.68 800.1 614.56 785.48 604.72 761.03 595.14 730.83 585.36 699.08 575.77 670.17 566.37 647.43 556.72 632.93 547.22 627.31 537.85 629.61 528.21 638.91 518.69 652.02 509.29 666.11 499.66 679.96 490.17 690.24 480.86 695.56 471.38 696.1 462.14 690.75 453.18 680.16 444.18 665.26 435.55 646.9 427.35 626.4 419.25 604.35 411.66 582.13 404.66 560.61 397.86 539.62 391.71 520.19 386.25 502.48 381.06 485.92 376.58 470.96 372.85 457.38 369.38 444.67 366.64 432.85 364.64 421.63 362.86 410.81 361.78 400.19 361.41 389.55 361.31 381.61 362 365.5 362.79 357.29 363.77 349.06 366.5 332.66 368.23 324.54 370.61 313.8 373.5 303.35 376.87 293.36 380.11 283.63 383.77 274.57 387.8 266.37 391.6 258.58 395.72 251.78 400.1 246.05 404.19 240.63 408.53 236.15 413.09 232.48 417.34 228.57 421.83 224.95 426.55 221.23 431.03 216.36 435.79 210.69 440.85 203.83 445.78 195.1 451.08 184.89 456.76 173.21 462.44 160.11 468.57 146.24 475.16 132.21 481.84 118.61 489.03 106.28 496.7 95.98 504.54 87.94 512.86 82.69 521.64 80.31 530.6 79.86 540 81.21 549.76 83.5 559.7 85.08 569.97 85.67 580.49 84.52 591.15 80.68 602.02 74.8 613.02 67.36 624.1 58.8 635.26 50.72 646.43 44.34 654.82 41.11 671.54 39.88 679.85 41.95" stroke-dasharray="8 2" transform="rotate(20.200000000000003, 711, 400)" opacity="0.78"></path><path d="M674.07 57.37C684.43 62.57 694.51 69.67 704.28 77.45 714.05 84.26 723.53 89.64 732.73 93 741.95 93.6 750.95 92.3 759.75 89.78 768.66 86.28 777.48 83.46 786.26 82.22 795.29 82.77 804.42 86.12 813.73 92.33 823.45 100.9 833.51 111.7 843.98 124 855.02 136.89 866.61 149.8 878.77 162.04 891.58 172.88 905.01 182.21 919.03 189.95 933.59 195.72 948.62 200.17 963.96 203.7 979.52 206.02 995.07 208.23 1010.37 210.74 1025.28 213.17 1039.45 216.53 1052.52 221 1064.49 226.08 1074.83 232.44 1083.2 239.98 1089.83 248.27 1094.09 257.56 1095.79 267.63 1095.48 278.26 1092.55 289.39 1087.06 300.75 1079.88 312.43 1070.55 324.1 1059.38 335.56 1047.51 347.14 1034.62 358.36 1021.22 369.07 1008.5 379.79 996.49 389.69 985.62 398.8 976.55 407.92 969.1 416.34 963.4 424.19 959.92 432.28 958.16 440.12 957.99 448.02 959.74 456.65 962.64 465.91 966.39 476.24 971.3 487.97 976.44 501.4 981.47 516.84 986.81 534.04 991.47 553.34 995.21 574.55 998.56 596.6 1000.61 619.4 1001.27 641.89 1001.14 662.55 999.48 680.55 996.32 694.44 992.27 703.39 986.8 706.47 980.02 703.23 972.47 695.03 963.79 682.07 954.15 666.11 943.97 650.67 933.03 637.28 921.5 628.75 909.66 627.97 897.4 635.6 884.88 652 872.22 675.97 859.42 704.95 846.58 735.25 833.71 762.62 820.87 782.98 808.15 792.84 795.44 791.01 782.86 777.19 770.45 753.6 758.08 725.41 745.86 696.94 733.83 673.78 721.81 661.23 710.22 661.06 699.06 672.72 687.86 694.29 677.04 720.71 666.58 746.83 656.03 768.85 645.8 781.97 635.85 784.16 625.77 775.58 615.93 757.04 606.31 731.48 596.5 702.25 586.87 673.08 577.4 647.3 567.72 627.23 558.17 614.42 548.74 609.01 539.09 610.85 529.56 618 520.17 628.36 510.59 640.97 501.16 652.75 491.93 661.99 482.58 668.58 473.48 670.61 464.68 667.98 455.88 661.39 447.45 650.68 439.46 636.74 431.59 620.23 424.24 602.02 417.45 583.03 410.89 563.32 404.96 543.95 399.7 525.41 394.73 507.2 390.45 490.16 386.91 474.37 383.65 459.13 381.11 444.99 379.31 431.84 377.75 419.05 376.89 406.97 376.75 395.49 376.78 384.13 377.48 373.18 378.85 362.61 380.3 352.03 382.34 342.04 384.92 332.66 387.47 323.3 390.49 314.61 393.95 306.67 397.26 298.82 400.94 291.79 404.95 285.63 408.72 279.53 412.76 274.25 417.05 269.7 421.03 264.95 425.23 260.63 429.62 256.5 433.7 251.58 437.99 246.33 442.49 240.41 446.72 233.05 451.21 224.58 455.96 214.81 460.54 203.49 465.45 190.99 470.69 177.58 475.88 163.58 481.48 149.61 487.48 136.32 493.52 124.23 500.01 114.01 506.94 106.22 513.97 100.76 521.46 97.96 529.38 97.61 537.43 98.61 545.89 100.74 554.72 103.14 563.68 104.28 572.98 104.03 582.54 101.83 592.22 96.98 602.12 90.25 612.2 82.22 622.34 73.4 632.61 65.31 642.94 59.08 653.31 55.16 663.69 54.55 674.06 57.36" stroke-dasharray="4 7" transform="rotate(24.24, 711, 400)" opacity="0.76"></path><path d="M670.97 72.78C680.73 78.1 690.32 85.31 699.73 93.29 709.15 100.5 718.4 106.43 727.49 110.48 736.64 111.86 745.69 111.23 754.67 109.1 763.78 105.61 772.91 102.26 782.12 99.93 791.57 98.85 801.21 100.19 811.1 104.18 821.35 110.54 831.97 119.41 843 130.27 854.49 142.39 866.47 155.29 878.94 168.27 891.89 180.64 905.32 192.05 919.15 202.21 933.33 210.69 947.77 217.76 962.31 223.58 976.85 227.87 991.2 231.42 1005.1 234.61 1018.49 237.06 1031.01 239.76 1042.36 242.98 1052.62 246.2 1061.27 250.3 1068.05 255.34 1073.24 260.73 1076.27 267.1 1076.99 274.35 1075.95 281.97 1072.61 290.33 1067.01 299.25 1060 308.4 1051.11 317.93 1040.62 327.68 1029.56 337.51 1017.6 347.43 1005.16 357.37 993.32 367.31 982.07 377.01 971.75 386.51 962.99 396.09 955.59 405.62 949.69 415.25 945.72 425.22 943.26 435.61 942.2 446.69 942.89 458.48 944.65 471.37 947.23 485.57 950.98 500.79 955.06 517.53 959.18 535.77 963.76 554.73 967.89 574.74 971.35 595.22 974.65 615.05 976.94 633.98 978.08 650.94 978.32 670.12 971.24 680.27 964.01 669.77 958.12 658.45 951.14 644.82 943.19 630.78 934.72 619.45 925.44 611.95 915.5 610.29 905.23 616.16 894.44 629.5 883.27 649.83 871.92 675.37 860.31 703.53 848.53 730.92 836.69 754.03 824.77 769.67 812.84 775.3 800.9 770.56 788.98 755.55 777.15 732.49 765.32 706.03 753.58 679.76 741.94 658.37 730.3 646.39 719.02 645.3 708.1 654.78 697.14 673.47 686.49 697.24 676.15 721.82 665.74 744.04 655.58 759.44 645.67 765.77 635.64 762.72 625.81 750.12 616.16 729.91 606.37 704.6 596.72 677.12 587.22 650.51 577.54 627.05 567.98 608.77 558.54 596.6 548.93 590.93 539.45 591.03 530.1 595.59 520.63 604.02 511.32 613.87 502.22 623.49 493.07 632.66 484.16 639.18 475.57 642.38 467.03 642.79 458.86 639.41 451.12 632.6 443.54 623.09 436.46 610.98 429.94 597.02 423.67 581.56 418.01 565.28 413 548.76 408.29 531.82 404.26 515.28 400.95 499.42 397.93 483.66 395.62 468.76 394.04 454.8 392.71 441.03 392.08 428.13 392.16 416.09 392.41 404.14 393.33 392.94 394.91 382.48 396.57 372.02 398.8 362.49 401.53 353.83 404.22 345.13 407.36 337.28 410.88 330.25 414.26 323.13 417.98 316.77 421.98 311.08 425.74 305.15 429.75 299.7 433.96 294.55 437.88 288.82 441.98 283.04 446.25 276.94 450.22 269.8 454.36 261.96 458.69 253.18 462.74 243.09 467.01 231.95 471.51 219.77 475.81 206.64 480.4 192.94 485.28 179.05 490.06 165.42 495.2 152.58 500.7 141.13 506.18 131.38 512.07 123.85 518.35 118.84 524.68 115.94 531.43 115.32 538.57 116.58 545.8 118.49 553.42 120.87 561.4 122.9 569.47 123.24 577.87 121.9 586.56 118.53 595.33 112.67 604.35 105.16 613.58 96.67 622.86 87.72 632.31 79.75 641.9 73.77 651.49 70.16 661.19 69.79 670.96 72.77" stroke-dasharray="10 1" transform="rotate(28.28, 711, 400)" opacity="0.14"></path><path d="M670.78 88.19C680.02 93.58 689.2 100.85 698.3 108.95 707.42 116.47 716.49 122.92 725.52 127.65 734.61 129.87 743.71 130.06 752.85 128.56 762.12 125.39 771.51 121.87 781.04 118.82 790.8 116.45 800.8 115.97 811.08 117.79 821.66 121.76 832.6 128.27 843.91 137.06 855.58 147.54 867.66 159.44 880.11 172.13 892.89 184.99 906 197.6 919.34 209.53 932.85 220.35 946.45 230.01 959.95 238.47 973.3 245.44 986.3 251.38 998.7 256.53 1010.52 260.56 1021.39 264.27 1031.07 267.94 1039.69 271.08 1046.76 274.59 1052.09 278.64 1056.97 284.96 1054.38 301.56 1046.94 311.84 1040.15 319.02 1031.73 326.86 1021.92 335.3 1011.67 343.76 1000.61 352.75 989.1 362.26 978.12 371.77 967.61 381.61 957.86 391.79 949.44 402.06 942.16 412.84 936.15 424.21 931.79 435.87 928.74 448.34 926.91 461.74 926.64 475.62 927.36 490.57 928.86 506.58 931.49 522.99 934.51 540.29 937.68 558.17 941.41 575.76 944.88 593.19 947.89 609.78 950.92 624.69 953.18 637.53 954.54 647.46 955.52 655.72 951.21 647.44 945.86 632.55 941.39 621.15 935.88 609.64 929.43 599.77 922.53 593.98 914.8 592.93 906.37 597.83 897.61 609.36 888.27 626.95 878.45 649.55 868.45 675.12 858.07 701.27 847.43 725.03 836.7 743.69 825.77 754.8 814.73 756.67 803.66 749.53 792.51 733.75 781.33 711.46 770.16 686.78 758.97 662.64 747.8 642.96 736.63 631.56 725.72 629.69 715.09 637.17 704.43 653.11 694.02 674.18 683.84 696.9 673.61 718.69 663.58 735.52 653.74 745.12 643.82 746.88 634.05 739.94 624.44 725.37 614.71 704.95 605.1 680.76 595.62 655.35 586.01 630.78 576.51 609.19 567.13 591.93 557.63 579.79 548.26 572.92 539.04 570.82 529.75 573.23 520.63 578.55 511.74 585.45 502.83 593.71 494.2 601.28 485.88 607.23 477.65 611.92 469.79 613.88 462.38 613 455.13 609.99 448.39 604.26 442.19 596.22 436.25 586.5 430.9 575.15 426.2 562.72 421.79 549.4 418.05 535.62 415 521.79 412.25 507.68 410.19 493.87 408.84 480.58 407.75 467.28 407.35 454.61 407.63 442.68 408.1 430.78 409.21 419.61 410.97 409.17 412.81 398.74 415.19 389.24 418.04 380.59 420.86 371.86 424.09 363.9 427.67 356.6 431.12 349.09 434.86 342.1 438.87 335.46 442.63 328.4 446.62 321.45 450.79 314.4 454.67 306.64 458.72 298.48 462.92 289.74 466.81 280.03 470.86 269.54 475.06 258.2 478.99 245.99 483.1 233.07 487.41 219.65 491.51 206.02 495.85 192.5 500.45 179.53 504.91 167.52 509.68 156.89 514.76 148.1 519.79 141.21 525.17 136.57 530.9 134.25 536.64 133.58 542.75 134.64 549.23 136.91 555.75 139.15 562.64 141.23 569.87 142.44 577.15 141.67 584.76 139.07 592.68 134.49 600.64 127.69 608.88 119.52 617.36 110.71 625.86 101.79 634.59 94.05 643.51 88.42 652.43 85.16 661.53 85.06 670.78 88.19" stroke-dasharray="1 12" transform="rotate(32.32, 711, 400)" opacity="0.90"></path><path d="M673.51 103.6C682.31 109.02 691.13 116.27 699.97 124.42 708.83 132.17 717.73 139.06 726.68 144.46 735.7 147.53 744.81 148.63 754.04 147.96 763.39 145.4 772.92 142.09 782.64 138.73 792.55 135.48 802.72 133.56 813.16 133.45 823.85 135.08 834.85 139.09 846.16 145.38 857.73 153.57 869.6 163.58 881.73 174.94 894.05 187.14 906.56 199.8 919.15 212.44 931.77 224.67 944.3 236.23 956.6 246.94 968.63 256.53 980.18 265.13 991.05 272.82 1001.29 279.35 1010.55 285.22 1018.63 290.65 1028.53 297.53 1038.65 310.94 1038.35 318.36 1036.27 323.31 1032.42 328.92 1026.87 335.23 1020.36 341.48 1012.44 348.47 1003.31 356.24 993.83 363.98 983.65 372.5 973.04 381.85 962.89 391.19 953.11 401.19 943.95 411.85 935.9 422.58 928.8 434.06 922.74 446.29 918.11 458.68 914.57 471.89 912.1 485.87 911 499.98 910.78 514.76 911.3 530.01 912.87 545.05 914.86 560.15 917.08 574.87 919.9 588.6 922.62 601.18 925.04 612.01 930.48 626.68 929.9 610.37 926 595.63 920.52 583.1 904.5 577.93 894.27 590.99 886.91 606.76 878.93 626.93 870.42 650.15 861.72 674.41 852.59 697.61 843.09 717.29 833.49 731.49 823.61 738.42 813.5 737.03 803.36 728.02 793.04 711.85 782.6 690.53 772.16 667.66 761.6 645.6 750.98 627.55 740.35 616.75 729.9 614.22 719.63 619.9 709.35 633.25 699.24 651.62 689.3 672.23 679.33 693.04 669.49 710.51 659.81 722.48 650.06 728.2 640.43 726.34 630.93 717.31 621.34 702.28 611.86 682.51 602.49 660 593.03 636.46 583.68 613.83 574.44 593.63 565.15 576.8 555.98 564.13 546.97 555.71 537.94 551.58 529.1 550.99 520.49 553.04 511.91 557.62 503.62 563.1 495.65 568.56 487.79 574.24 480.32 578.58 473.28 581.12 466.43 582.55 460.07 581.77 454.25 578.86 448.69 574.59 443.71 568.45 439.35 560.77 435.28 552.1 431.85 542.36 429.09 531.9 426.63 520.95 424.84 509.66 423.73 498.31 422.89 486.79 422.7 475.43 423.17 464.36 423.84 453.28 425.12 442.57 427.03 432.29 429.02 422.01 431.52 412.36 434.46 403.28 437.38 394.12 440.68 385.42 444.31 377.07 447.8 368.49 451.57 360.08 455.58 351.7 459.36 342.89 463.35 333.88 467.49 324.53 471.36 314.57 475.38 304.1 479.53 293.01 483.39 281.32 487.38 269.02 491.51 256.22 495.36 243.14 499.38 229.89 503.56 216.74 507.52 204.07 511.68 192.13 516.07 181.33 520.29 171.89 524.78 164.17 529.55 158.45 536.7 153.51 552.53 154.49 561.26 158.13 567.18 160.08 573.45 161.34 580.06 161.37 586.67 159.28 593.61 155.37 600.86 149.63 608.12 142 615.68 133.35 623.52 124.4 631.36 115.65 639.46 108.26 647.8 103.05 656.14 100.18 664.71 100.36 673.51 103.6" stroke-dasharray="4 10" transform="rotate(36.36, 711, 400)" opacity="0.12"></path><path d="M678.97 119.01C687.37 124.41 695.87 131.58 704.45 139.7 713.06 147.59 721.78 154.85 730.62 160.84 739.51 164.76 748.56 166.83 757.77 167.12 767.09 165.42 776.61 162.66 786.34 159.42 796.22 155.78 806.35 152.88 816.72 151.25 827.27 150.85 838.08 152.45 849.11 156.15 860.31 161.67 871.72 169.18 883.26 178.37 894.88 188.84 906.56 200.34 918.18 212.44 929.71 224.81 941.03 237.12 952 249.08 962.64 260.5 972.71 271.22 982.04 281.2 990.74 290.3 998.47 298.67 1005.05 306.42 1010.73 313.36 1015.07 319.9 1017.94 326.22 1019.74 331.97 1019.97 337.76 1018.61 343.75 1016.19 349.41 1012.24 355.46 1006.82 362.01 1000.63 368.4 993.22 375.42 984.77 383.14 976.06 390.8 966.72 399.23 956.98 408.49 947.64 417.75 938.58 427.68 930 438.24 922.36 448.83 915.48 460.07 909.45 471.88 904.64 483.7 900.74 496.01 897.73 508.66 895.93 521.12 894.89 533.66 894.52 545.99 895.12 557.69 896.14 568.72 897.43 578.64 903.83 571 887.97 569.04 879.51 588.86 873.4 607.21 866.65 628.28 859.35 650.64 851.87 672.49 843.91 692.07 835.53 707.48 827.04 717.4 818.2 720.59 809.06 716.49 799.87 706.09 790.43 689.9 780.77 669.73 771.11 648.69 761.26 628.62 751.25 612.14 741.24 601.96 731.32 598.89 721.5 602.96 711.68 613.9 701.96 629.62 692.34 647.94 682.71 667.32 673.17 684.72 663.72 698.17 654.25 706.9 644.85 709.35 635.56 705.43 626.21 695.84 616.95 681.14 607.79 662.74 598.59 641.99 589.49 620.45 580.51 599.57 571.5 580.29 562.64 563.7 553.94 550.3 545.26 540.35 536.78 533.77 528.55 530.15 520.38 529.44 512.5 530.64 504.95 533.01 497.54 536.69 490.51 540.33 483.91 543.37 474.55 547.17 458.76 546.54 452.49 541.74 448.79 537.29 445.7 531.51 443.26 524.63 441.11 517.24 439.59 509.05 438.73 500.25 438.11 491.22 438.13 481.82 438.79 472.19 439.63 462.5 441.06 452.7 443.09 442.83 445.2 432.97 447.79 423.28 450.8 413.75 453.78 404.17 457.13 394.65 460.78 385.12 464.31 375.43 468.1 365.6 472.1 355.54 475.9 345.19 479.88 334.49 484.01 323.38 487.88 311.95 491.89 300.07 496.02 287.8 499.87 275.38 503.84 262.72 507.93 250.02 511.75 237.61 515.71 225.55 519.82 214.16 523.69 203.71 527.75 194.42 532 186.6 538.21 177.94 551.63 171.59 558.93 173.18 566.4 176.21 582.82 180.73 591.8 179.35 597.87 175.85 604.26 170.65 610.95 163.88 617.64 155.6 624.63 146.67 631.92 137.76 639.19 129.33 646.76 122.41 654.61 117.67 662.45 115.23 670.57 115.67 678.97 119.01" stroke-dasharray="6 12" transform="rotate(40.400000000000006, 711, 400)" opacity="0.84"></path><path d="M686.76 134.42C694.79 139.75 702.98 146.79 711.29 154.79 719.63 162.74 728.13 170.25 736.78 176.75 745.48 181.46 754.36 184.49 763.42 185.84 772.57 185.18 781.92 183.27 791.47 180.56 801.13 177.02 811 173.69 821.07 171.07 831.26 169.12 841.63 168.69 852.15 170 862.74 172.83 873.44 177.56 884.17 184.07 894.89 192.02 905.55 201.37 916.04 211.78 926.37 222.98 936.39 234.68 945.97 246.57 955.18 258.5 963.78 270.2 971.62 281.52 978.85 292.39 985.15 302.72 990.37 312.5 994.78 321.69 997.97 330.39 999.86 338.7 1000.82 346.5 1000.43 354.08 998.64 361.56 995.99 368.71 992.02 375.95 986.8 383.38 980.96 390.64 974.09 398.25 966.31 406.29 958.35 414.26 949.82 422.76 940.92 431.82 932.37 440.89 924 450.34 916.02 460.12 908.81 469.9 902.2 479.96 896.28 490.19 891.37 500.3 887.2 510.41 883.79 520.33 881.4 529.89 879.67 538.96 878.53 547.27 884.57 551.97 879.82 539.57 875.2 548.3 871.67 558.96 867.45 573.04 862.57 590.15 857.51 609.39 851.83 629.82 845.6 650.08 839.21 668.7 832.32 684.31 824.98 695.46 817.55 701.44 809.71 701.4 801.51 695.15 793.27 683.84 784.71 667.95 775.88 649.07 767.02 629.86 757.92 611.71 748.59 596.73 739.27 587.18 729.95 583.68 720.66 586.34 711.38 595.05 702.13 608.22 692.94 624.16 683.74 641.76 674.58 658.46 665.49 672.55 656.39 683.36 647.34 689.19 638.36 689.67 629.37 685.17 620.44 675.68 611.61 662.08 602.77 645.39 594.03 626.67 585.41 607.18 576.8 587.74 568.34 569.48 560.06 553.11 551.82 538.98 543.8 527.5 536.02 518.65 528.34 512.44 520.95 508.48 513.89 506.3 506.99 505.96 500.46 506.54 494.36 507.51 485.74 509.93 471.33 511.83 465.68 510.15 461.01 506.78 455.07 493.81 453.83 484.62 453.45 477.99 453.66 470.61 454.48 462.58 455.48 454.49 457.03 445.84 459.15 436.69 461.35 427.55 464 418.15 467.04 408.52 470.07 398.88 473.43 388.97 477.09 378.79 480.63 368.55 484.41 357.98 488.4 347.08 492.2 336.1 496.18 324.78 500.29 313.16 504.17 301.54 508.18 289.72 512.3 277.83 516.16 266.2 520.13 254.75 524.21 243.7 528.03 233.33 531.98 223.72 536.05 215.15 541.89 204.63 554.11 192.7 560.57 191.45 567.04 192.68 581.04 198.47 588.65 200.63 593.75 200.45 599.14 199 604.82 196.05 610.47 191.18 616.41 184.82 622.66 177.23 628.88 168.53 635.41 159.52 642.24 150.84 649.05 142.88 656.17 136.51 663.59 132.32 671 130.31 678.72 131.02 686.76 134.42" stroke-dasharray="3 4" transform="rotate(44.44, 711, 400)" opacity="0.10"></path><path d="M696.31 149.83C704 155.05 711.85 161.89 719.86 169.71 727.89 177.61 736.1 185.27 744.47 192.16 752.88 197.56 761.48 201.52 770.25 203.92 779.08 204.43 788.1 203.6 797.28 201.75 806.53 198.77 815.95 195.56 825.51 192.56 835.12 189.68 844.85 187.8 854.63 187.18 864.44 187.64 874.25 189.73 883.99 193.45 893.66 198.52 903.17 205.11 912.43 213 921.48 221.94 930.16 231.8 938.35 242.3 946.16 253.31 953.34 264.57 959.77 275.85 965.64 287.17 970.63 298.27 974.62 309.05 977.92 319.6 980.13 329.76 981.18 339.52 981.47 348.99 980.58 358.13 978.49 366.99 975.7 375.62 971.8 384.09 966.83 392.47 961.38 400.72 955.04 409 947.94 417.35 940.7 425.67 932.95 434.13 924.86 442.76 917.06 451.39 909.39 459.98 902 468.48 895.24 476.94 888.95 485.23 883.19 493.24 878.27 501.07 873.95 508.45 870.23 515.21 863.14 522.91 858.31 530.27 854.49 545.57 851.6 559.37 848.1 575.48 844.02 593.3 839.79 611.87 835 630.37 829.67 647.61 824.23 662.52 818.29 674.04 811.89 681.19 805.4 683.68 798.5 680.97 791.2 673.13 783.87 661.35 776.17 646.05 768.16 628.57 760.13 611.17 751.8 594.86 743.2 581.32 734.6 572.41 725.95 568.6 717.27 570.02 708.6 576.72 699.91 587.46 691.24 601 682.56 616.56 673.9 632.06 665.27 646.05 656.64 657.98 648.04 666.23 639.5 670.21 630.97 670.13 622.49 665.53 614.1 656.9 605.73 644.94 597.46 630.24 589.31 613.76 581.21 596.19 573.25 578.48 565.48 561.38 557.78 545.26 550.29 530.76 543.06 518.15 535.94 507.46 529.11 498.78 522.61 491.94 516.27 486.91 510.3 483.27 504.73 480.64 496.92 478.65 483.98 476.31 478.97 474.52 474.9 472.15 469.92 463.07 469.06 456.2 468.89 451.21 469.29 445.36 470.25 438.69 471.37 431.97 473.03 424.49 475.21 416.26 477.47 408.04 480.15 399.31 483.2 390.15 486.23 381.01 489.59 371.44 493.22 361.51 496.75 351.62 500.51 341.38 504.46 330.88 508.26 320.48 512.21 309.88 516.3 299.22 520.19 288.81 524.19 278.5 528.3 268.45 532.18 258.91 536.16 249.89 540.23 241.6 544.08 234.11 548.03 227.61 552.1 222.25 557.94 216.35 570.04 212.2 576.37 213.48 582.67 215.82 596.17 220.33 603.43 220.5 608.27 218.76 613.38 215.7 618.76 211.25 624.07 205.14 629.68 197.86 635.58 189.69 641.43 180.82 647.58 171.97 654.03 163.7 660.45 156.34 667.19 150.61 674.23 146.99 681.26 145.44 688.62 146.39 696.31 149.83" stroke-dasharray="13 14" transform="rotate(48.48, 711, 400)" opacity="0.43"></path><path d="M706.93 165.24C714.26 170.31 721.76 176.9 729.41 184.45 737.08 192.21 744.92 199.9 752.91 207.05 760.94 213.01 769.13 217.78 777.46 221.21 785.84 222.9 794.36 223.29 803 222.55 811.68 220.52 820.47 217.93 829.33 215.14 838.2 212.01 847.11 209.37 856.01 207.49 864.87 206.2 873.65 206.12 882.3 207.36 890.82 209.67 899.12 213.38 907.11 218.39 914.87 224.48 922.21 231.68 929.05 239.8 935.52 248.68 941.36 258.18 946.5 268.08 951.14 278.37 954.96 288.8 957.89 299.23 960.23 309.75 961.61 320.11 961.98 330.23 961.73 340.3 960.48 350.09 958.2 359.57 955.37 368.96 951.6 378.08 946.93 386.92 941.89 395.71 936.1 404.28 929.64 412.63 923.1 420.96 916.12 429.11 908.8 437.04 901.74 444.97 894.74 452.48 887.93 459.53 881.65 466.53 875.71 472.99 870.17 478.84 863.13 487.02 852.47 499.02 848.78 502.46 843.51 498.28 841.01 503.23 839.15 513.17 837.74 522.72 835.85 534.4 833.46 548.07 830.98 563.29 828 579.69 824.5 596.63 820.91 613.25 816.82 628.86 812.23 642.53 804.99 657.35 788.16 661.87 778.67 650.57 772.17 638.72 765.3 624.25 758.09 608.26 750.86 592.63 743.32 578.08 735.47 565.91 727.63 557.64 719.68 553.63 711.67 554 703.68 558.9 695.62 567.4 687.55 578.56 679.48 591.94 671.4 605.84 663.33 619.09 655.28 631.31 647.24 640.98 639.24 647.48 631.28 650.89 623.36 650.53 615.52 646.52 607.73 639.39 600.02 629.28 592.45 616.85 584.94 602.64 577.58 587.32 570.41 571.57 563.32 555.71 556.45 540.42 549.83 526.1 543.34 512.79 537.12 500.89 531.23 490.46 525.51 481.39 520.13 473.7 515.14 467.22 508.17 459.66 496.76 448.96 492.42 444.57 488.94 440.56 484.93 430.77 484.42 424.48 484.46 420.07 485.02 414.97 486.1 409.15 487.33 403.3 489.05 396.75 491.26 389.5 493.55 382.24 496.23 374.49 499.26 366.32 502.28 358.18 505.59 349.68 509.17 340.89 512.66 332.21 516.37 323.33 520.27 314.36 524.03 305.6 527.95 296.87 532 288.33 535.87 280.16 539.86 272.34 543.95 265.03 547.83 258.3 551.82 252.26 555.89 247.08 561.75 240.85 573.66 234.49 579.77 234.28 585.74 235.39 598.22 239.63 604.8 241.27 611.4 240.82 625.54 232.86 633.14 224.78 638.22 217.7 643.56 209.78 649.17 201.34 654.73 192.57 660.58 184.1 666.71 176.42 672.81 169.76 679.2 164.74 685.91 161.72 692.59 160.61 699.6 161.79 706.93 165.24" stroke-dasharray="6 1" transform="rotate(52.52, 711, 400)" opacity="0.44"></path><path d="M717.84 180.65C724.79 185.53 731.89 191.81 739.12 199.03 746.37 206.54 753.76 214.14 761.28 221.4 768.82 227.78 776.48 233.21 784.25 237.54 792.05 240.38 799.94 242.01 807.9 242.53 815.86 241.71 823.88 240.14 831.9 238.08 839.9 235.35 847.88 232.67 855.77 230.3 863.59 228.04 871.28 226.54 878.77 225.95 886.11 226.02 893.18 227.23 899.91 229.55 906.4 232.75 912.47 237.05 918.03 242.33 923.26 248.41 927.89 255.3 931.87 262.83 935.42 270.93 938.23 279.46 940.25 288.26 941.79 297.4 942.5 306.63 942.34 315.84 941.69 325.2 940.18 334.44 937.81 343.46 935.03 352.54 931.45 361.37 927.11 369.88 922.5 378.42 917.25 386.63 911.44 394.48 905.57 402.35 899.31 409.83 892.74 416.89 886.38 423.95 880.04 430.38 873.83 436.16 868.03 441.91 862.47 446.97 857.21 451.31 844.76 461.37 831.83 468.97 829.21 469.35 826.18 470.59 822.89 479.37 821.58 487.22 820.75 494.51 819.61 503.39 818.16 513.9 816.72 525.87 814.91 539.2 812.7 553.61 810.46 568.56 807.8 583.74 804.71 598.52 801.57 612.27 797.99 624.43 793.99 634.32 787.68 643.58 772.94 640.2 764.56 627.61 758.82 616.04 752.72 602.59 746.28 588.14 739.82 574.25 733.04 561.37 725.96 550.5 718.88 542.89 711.67 538.77 704.37 538.27 697.09 541.59 689.73 548.03 682.33 556.94 674.95 568.07 667.53 580.09 660.11 592.1 652.71 603.86 645.32 614.05 637.97 622.05 630.66 627.93 623.39 630.86 616.2 630.78 609.07 628.05 602.03 622.5 595.11 614.5 588.28 604.49 581.59 592.8 575.09 579.96 568.69 566.28 562.49 552.27 556.54 538.37 550.72 524.64 545.17 511.56 539.93 499.34 534.85 487.87 530.1 477.42 525.71 467.99 521.51 459.43 517.7 451.78 514.31 444.92 509.75 435.95 503.19 420.81 501.26 413.87 500.11 407.19 500.5 392.76 502.03 384.69 503.34 379.17 505.1 373.22 507.32 366.82 509.61 360.42 512.26 353.74 515.23 346.85 518.2 340 521.45 333 524.93 325.93 528.36 318.97 532 312.04 535.81 305.25 539.51 298.68 543.36 292.36 547.34 286.43 553.15 278.31 565.04 265.68 571.08 261.55 576.95 258.89 588.9 257.85 595 259.04 600.98 260.45 613.39 262.54 619.88 262.02 624.14 260.35 628.59 257.77 633.22 254.19 637.76 249.31 642.51 243.42 647.48 236.62 652.38 228.91 657.51 220.7 662.89 212.3 668.21 203.9 673.79 196.02 679.63 189.07 685.44 183.2 691.53 178.92 697.89 176.52 704.25 175.84 710.89 177.23 717.84 180.65" stroke-dasharray="12 8" transform="rotate(56.56, 711, 400)" opacity="0.35"></path><path d="M728.26 196.06C734.79 200.71 741.43 206.63 748.18 213.45 754.94 220.62 761.8 227.99 768.75 235.23 775.71 241.83 782.75 247.75 789.85 252.82 796.96 256.66 804.11 259.47 811.27 261.26 818.43 261.8 825.57 261.51 832.67 260.57 839.72 258.77 846.69 256.69 853.52 254.57 866.91 249.69 879.48 246.84 890.73 246.96 901.11 249.24 909.67 255.2 915.95 264.26 918.56 269.61 920.53 275.56 921.8 281.96 922.7 288.77 922.88 295.9 922.32 303.22 921.39 310.8 919.74 318.44 917.37 326.05 914.69 333.8 911.35 341.44 907.38 348.86 903.21 356.36 898.5 363.6 893.32 370.5 888.1 377.44 882.53 384.01 876.69 390.16 871 396.3 865.31 401.86 859.68 406.81 854.38 411.75 849.23 416.08 844.29 419.82 837.66 425.14 826.39 433.23 821.76 436.32 818.05 439.47 812.18 446.22 809.82 450.66 807.63 459.23 805.32 471.16 802.56 487.5 800.32 508.16 797.12 532.83 792.79 559.7 790.64 572.99 788.15 585.77 785.32 597.56 782.46 607.94 779.25 616.46 775.68 622.68 770.09 627.02 757.07 617.53 749.67 604.37 744.59 593.39 739.19 581.1 733.47 568.23 727.73 556.02 721.69 544.72 715.36 535.09 709.03 528.14 702.57 524 696.01 522.81 689.47 524.78 682.85 529.38 676.17 536.18 669.52 545.08 662.82 555.07 656.12 565.48 649.44 576.19 642.78 586.1 636.14 594.65 629.55 601.94 623.01 607.12 616.54 610 610.14 610.86 603.83 609.32 597.64 605.52 585.52 592.39 574.02 572.92 563.41 550.13 553.31 525.56 544.28 501.65 536.56 479.89 532.96 469.61 529.71 460.02 526.84 451.13 524.16 442.71 521.87 434.9 520 427.64 518.32 420.75 517.05 414.26 516.23 408.09 515.47 399.27 516.38 382.39 518.04 374.03 519.41 368.46 521.19 362.81 523.38 357.06 525.64 351.31 528.23 345.61 531.11 339.98 534 334.37 537.15 328.89 540.52 323.58 545.61 315.88 556.54 302.24 562.31 296.61 568.01 291.83 579.73 285.47 585.71 283.97 593.29 282.72 601.25 283.27 609.55 284.84 617.31 284.72 625.55 283.47 634.28 279.86 638.5 276.48 642.87 272.26 647.39 267.18 651.84 261.09 656.47 254.27 661.27 246.86 666.02 238.9 670.97 230.76 676.12 222.72 681.23 214.93 686.57 207.83 692.13 201.73 697.66 196.72 703.44 193.2 709.46 191.4 715.46 191.13 721.73 192.7 728.26 196.06" stroke-dasharray="8 13" transform="rotate(60.599999999999994, 711, 400)" opacity="0.70"></path><path d="M737.42 211.47C749.54 221.16 761.99 234.31 774.59 248.54 787.21 261.18 799.96 271.42 812.58 278.4 825.11 281.06 837.35 280.89 848.98 278.97 860.23 274.99 870.56 271.59 879.57 269.78 887.81 268.76 894.36 270.47 898.87 274.85 902.26 280.81 903.37 289.05 902.02 298.87 899.56 309.69 894.76 321.29 887.76 332.99 880.22 345 871.04 356.58 860.63 367.25 850.74 377.93 840.85 387.09 831.39 394.89 823.26 402.89 815.82 410.03 809.16 416.94 803.94 425.02 799.29 434.14 795.05 445.21 791.87 458.84 788.67 475.51 785.21 495.32 782.27 517.21 778.68 540.73 774.24 563.87 769.94 584.23 764.57 599.69 758.06 607.55 751.5 607.49 743.74 598.29 734.8 581 725.8 560.32 715.65 538.35 704.44 519.67 693.23 509.56 681.58 508.73 669.71 516.33 657.93 531.48 646.03 549.36 634.26 566.14 622.66 580.66 611.29 588.75 600.39 589.6 589.8 584.4 579.81 572.83 570.67 556.8 561.99 537.72 554.29 517.21 547.81 496.93 541.91 476.73 537.32 458.09 534.23 441.38 531.75 425.5 530.78 411.27 531.42 398.51 532.56 386.1 535.23 374.62 539.44 364.02 543.88 353.41 549.45 344.09 555.91 336.17 562.25 328.38 569.29 322.24 576.86 317.94 584.06 313.88 591.71 311.64 599.68 311.01 607.19 309.89 615.06 309.43 623.23 308.78 630.97 305.82 639.12 301.14 647.68 294.01 655.9 283.47 664.67 270.44 674.01 255.7 683.15 240.1 692.98 225.68 703.54 214.49 714 207.4 725.3 206.22 737.42 211.47" stroke-dasharray="9 5" transform="rotate(64.64, 711, 400)" opacity="0.32"></path><path d="M744.66 226.88C755.75 235.85 766.98 247.96 778.19 261.36 789.4 273.94 800.54 285 811.39 293.67 822.12 298.87 832.41 301.47 841.99 302.09 851.22 300.22 859.48 297.91 866.48 296.05 879.19 296.15 876.75 317.06 868.27 329.57 861.65 338.42 853.66 347.69 844.57 357.09 835.89 366.5 827.08 375.6 818.49 384.49 810.9 393.66 803.72 403.15 797.07 413.39 791.53 424.64 786.4 437.46 781.58 452.21 777.64 468.45 773.71 486.76 769.65 506.61 766.09 526.63 762.07 546.36 757.47 563.98 753.06 578.03 747.86 586.93 741.79 589.06 735.73 585.1 728.72 574.22 720.76 557.63 712.77 539.27 703.83 520.38 694 504.26 684.17 494.94 673.99 492.81 663.65 497.44 653.38 508.57 643.04 522.8 632.85 537.36 622.83 551.65 613.04 562.01 603.72 567.28 594.68 568.36 586.21 563.93 578.53 555 571.25 542.81 564.87 527.99 559.57 511.94 554.76 494.89 551.13 478.06 548.8 462.2 546.98 446.46 546.49 432.02 547.42 419.09 548.75 406.35 551.44 394.94 555.5 384.99 559.76 375.03 565.04 366.87 571.12 360.41 577.13 353.89 583.81 349.04 591 345.71 597.91 342.1 605.26 339.66 612.94 337.94 620.27 335.12 627.94 332.11 635.89 328.22 643.5 322.05 651.47 314.11 659.78 304.13 667.82 291.8 676.32 277.95 685.26 263.48 694.04 249.18 703.38 236.64 713.27 227.44 723.1 221.99 733.57 221.69 744.66 226.88" stroke-dasharray="9 4" transform="rotate(68.68, 711, 400)" opacity="0.75"></path><path d="M749.45 242.29C759.42 250.46 769.35 261.41 779.1 273.74 788.84 285.84 798.35 297.17 807.44 306.93 816.42 314.15 824.85 319.29 832.52 322.57 856.78 322.24 856.4 332.53 848.91 341.32 843.2 347.69 836.34 355.16 828.51 363.64 821 372.12 813.26 381.26 805.58 391.08 798.63 401.11 791.87 412.18 785.44 424.38 779.83 437.16 774.47 451.39 769.34 466.94 764.89 482.92 760.46 499.79 755.96 516.74 751.91 532.66 747.55 547.04 742.81 558.51 738.27 566.49 733.16 569.78 727.44 567.57 721.77 561.08 715.38 549.65 708.28 534.4 701.17 518.51 693.33 502.57 684.8 488.85 676.27 480.39 667.49 477.33 658.65 479.49 649.86 487.01 641.07 497.52 632.45 509.16 623.98 521.79 615.77 532.43 608.01 539.91 600.47 545.01 593.49 545.97 587.22 543.08 581.27 537.54 576.13 529.02 571.96 518.5 568.16 506.58 565.39 493.81 563.77 480.97 562.53 467.77 562.45 455.11 563.6 443.41 565.06 431.73 567.71 421.12 571.56 411.8 575.58 402.48 580.5 394.79 586.15 388.57 591.76 382.19 597.99 377.06 604.7 372.89 611.22 368.2 618.17 363.98 625.44 359.8 632.45 354.43 639.8 348.39 647.4 341.29 654.75 332.41 662.42 322.1 670.36 310.42 678.1 297.47 686.21 283.92 694.64 270.62 702.96 258.2 711.7 247.83 720.84 240.66 729.93 236.77 739.48 237.25 749.45 242.29" stroke-dasharray="9 11" transform="rotate(72.72, 711, 400)" opacity="0.54"></path><path d="M751.45 257.7C760.21 265 768.78 274.68 777.07 285.73 785.32 296.94 793.24 307.98 800.66 318.14 807.98 326.67 814.71 333.73 820.68 339.31 838.38 348.55 836.15 358.4 829.69 365.28 824.87 370.27 819.07 376.61 812.44 384.34 806.05 392.08 799.38 400.92 792.64 410.76 786.41 420.71 780.22 431.79 774.19 443.86 768.74 456.06 763.41 469.16 758.22 482.77 753.53 496.07 748.85 509.23 744.14 521.49 739.78 532.25 735.23 540.95 730.43 546.66 725.83 549.55 720.84 548.62 715.45 543.59 710.12 535.87 704.29 524.84 697.97 511.42 691.66 498.08 684.82 484.91 677.5 473.44 670.17 465.9 662.74 462.26 655.32 462.47 647.94 466.88 640.63 473.88 633.54 482.31 626.54 492.32 619.84 501.66 613.56 509.36 604.66 518.19 590.21 519.45 585.05 512.65 582.18 506.16 580.18 498.23 579.16 489.45 578.42 480.14 578.67 470.56 579.96 461.14 581.49 451.62 584.03 442.51 587.62 434.01 591.34 425.52 595.84 418 600.99 411.35 606.12 404.54 611.82 398.32 617.96 392.47 623.99 386.1 630.42 379.67 637.15 372.9 643.72 365.19 650.59 356.72 657.69 347.34 664.63 336.91 671.84 325.57 679.26 313.59 686.55 301.25 694.12 289.02 701.92 277.64 709.64 267.49 717.65 259.43 725.92 254.25 734.16 251.79 742.69 252.89 751.45 257.7" stroke-dasharray="1 10" transform="rotate(76.76, 711, 400)" opacity="0.42"></path><path d="M750.5 273.11C757.99 279.49 765.2 287.82 772.04 297.4 778.86 307.37 785.26 317.57 791.15 327.43 796.96 336.41 802.18 344.54 806.7 351.68 816.71 365.43 821.72 378.35 819.54 382.66 817.53 385.46 814.55 389.12 810.63 393.81 806.66 398.41 801.88 404.15 796.38 411.14 791.06 418.12 785.43 426.06 779.66 434.81 774.23 443.57 768.72 453.09 763.25 463.11 758.18 472.98 753.12 483.08 748.12 492.97 743.47 502.23 738.8 510.72 734.11 517.86 727.4 525.46 713.51 525.94 706.1 517.79 701.14 509.97 695.86 500.09 690.29 488.81 684.73 477.99 678.83 467.41 672.63 458.03 666.44 451.47 660.25 447.58 654.16 446.38 648.09 448.27 642.17 452.19 636.49 457.47 630.87 464.43 625.56 471.47 620.65 477.89 602.19 490.38 594.91 474.44 596.51 464.53 598.04 457.61 600.42 450.38 603.68 442.98 607.04 435.58 611.06 428.37 615.64 421.34 620.23 414.2 625.32 407.04 630.8 399.77 636.22 392.18 642.01 384.2 648.07 375.77 654.04 366.82 660.29 357.26 666.74 347.15 673.09 336.64 679.66 325.76 686.4 314.85 693.06 304.17 699.93 294.06 706.93 285.09 713.9 277.4 721.05 271.63 728.33 268.28 735.59 267.06 743.01 268.64 750.5 273.11" stroke-dasharray="12 3" transform="rotate(80.80000000000001, 711, 400)" opacity="0.49"></path><path d="M746.68 288.52C759.06 300.46 770.07 317.16 779.18 335.07 788.05 351.65 794.67 366.37 798.5 378.61 801.75 387.9 801.99 396.17 798.99 404.64 795.56 412.06 789.25 421.46 780.32 433.59 771.86 445.71 762.32 459.61 752.55 473.7 743.78 486.83 734.74 498.04 725.72 504.59 717.42 507.27 708.65 502.85 699.49 490.89 690.55 476.58 680.83 459.05 670.56 442.62 660.29 433.73 650.45 431.69 641.6 435.14 632.91 444.27 625.48 453.5 619.91 459.78 613.25 465.93 612.74 451.95 619.73 435.21 625.67 423.05 633.75 409.24 643.21 394.19 652.59 378.67 663.25 361.23 674.56 342.82 685.68 324.65 697.57 307.26 709.71 293.51 721.79 284.24 734.3 282.06 746.68 288.52" stroke-dasharray="10 12" transform="rotate(84.84, 711, 400)" opacity="0.25"></path><path d="M740.27 303.93C750.03 313.49 758.43 326.74 765.15 341.45 771.72 356.13 776.42 370.35 778.93 383.16 781.14 394.56 781.07 404.97 778.62 414.66 775.97 423.71 771.14 433.1 764.26 442.96 757.67 452.83 750.04 462.23 742.01 470.23 734.56 477.46 726.7 481.93 718.78 482.37 711.29 480.8 703.49 474.45 695.57 463.68 687.79 452.49 679.66 439.54 671.42 427.21 663.19 419.6 655.61 415.9 649.03 415.63 634.37 427.24 629.78 426.02 635.79 413.73 640.77 404.37 647.44 392.64 655.23 379.42 663.03 366.29 671.87 351.86 681.24 337.42 690.55 324.02 700.44 312.05 710.41 303.44 720.38 298.17 730.5 298.03 740.27 303.93" stroke-dasharray="15 14" transform="rotate(88.88, 711, 400)" opacity="0.42"></path><path d="M731.72 319.34C738.9 326.47 744.92 336.14 749.6 347.08 754.2 358.49 757.37 370.18 758.97 381.27 760.43 392 760.29 402.08 758.48 411.17 756.6 420.04 753.17 428.3 748.21 435.6 743.4 442.9 737.7 448.49 731.57 452.04 725.71 455.23 719.42 455.85 713.03 453.62 706.86 450.72 700.46 444.98 694.09 436.9 687.8 429.17 681.4 420.43 675.17 411.8 652.35 401.43 647.02 395.62 651.85 386.9 655.75 380.23 660.9 371.78 666.88 362.37 672.9 353.22 679.72 343.55 686.93 334.41 694.13 326.25 701.74 319.53 709.33 315.34 716.93 313.18 724.54 314.35 731.72 319.34" stroke-dasharray="7 3" transform="rotate(92.92, 711, 400)" opacity="0.11"></path><path d="M721.67 334.75C731.02 345 737 360.24 738.96 375.39 740.75 390.84 738.55 405.01 732.15 414.38 726.01 423.74 717.29 426.14 708.2 421.95 699.44 417.6 689.97 408.02 681.52 396.39 670.06 386.55 662.22 375.85 667.91 365.16 673.36 356.66 682.08 345.85 691.79 336.91 701.57 330.12 712.32 328.42 721.67 334.75" stroke-dasharray="11 13" transform="rotate(96.96, 711, 400)" opacity="0.42"></path></g></svg>