<svg xmlns="http://www.w3.org/2000/svg" version="1.1" xmlns:xlink="http://www.w3.org/1999/xlink" xmlns:svgjs="http://svgjs.dev/svgjs" viewBox="0 0 2400 800" opacity="1"><defs><linearGradient x1="50%" y1="0%" x2="50%" y2="100%" id="sssurf-grad"><stop stop-color="hsla(22, 88%, 62%, 1)" stop-opacity="1" offset="0%"></stop><stop stop-color="hsla(20, 78%, 66%, 1)" stop-opacity="1" offset="100%"></stop></linearGradient></defs><g fill="url(#sssurf-grad)" transform="matrix(1,0,0,1,9.4296875,226.5971221923828)"><path d="M-10,10C33.75,10.416666666666666,114.58333333333334,22.625,200,12C285.41666666666663,1.375,316.66666666666663,-44.541666666666664,400,-41C483.33333333333337,-37.458333333333336,516.6666666666666,24.625,600,29C683.3333333333334,33.375,716.6666666666666,-18.75,800,-20C883.3333333333334,-21.25,916.6666666666666,21.333333333333332,1000,23C1083.3333333333333,24.666666666666668,1116.6666666666667,-17.625,1200,-12C1283.3333333333333,-6.375,1316.6666666666667,53.125,1400,50C1483.3333333333333,46.875,1516.6666666666667,-25.125,1600,-27C1683.3333333333333,-28.875,1716.6666666666667,37.875,1800,41C1883.3333333333333,44.125,1916.6666666666667,-12.208333333333334,2000,-12C2083.3333333333335,-11.791666666666666,2116.6666666666665,37.625,2200,42C2283.3333333333335,46.375,2306.25,-65.58333333333333,2400,9C2493.75,83.58333333333333,3254.1666666666665,214.375,2650,400C2045.8333333333335,585.625,156.25,795.8333333333334,-500,900" transform="matrix(1,0,0,1,0,36)" opacity="0.05"></path><path d="M-10,10C33.75,10.416666666666666,114.58333333333334,22.625,200,12C285.41666666666663,1.375,316.66666666666663,-44.541666666666664,400,-41C483.33333333333337,-37.458333333333336,516.6666666666666,24.625,600,29C683.3333333333334,33.375,716.6666666666666,-18.75,800,-20C883.3333333333334,-21.25,916.6666666666666,21.333333333333332,1000,23C1083.3333333333333,24.666666666666668,1116.6666666666667,-17.625,1200,-12C1283.3333333333333,-6.375,1316.6666666666667,53.125,1400,50C1483.3333333333333,46.875,1516.6666666666667,-25.125,1600,-27C1683.3333333333333,-28.875,1716.6666666666667,37.875,1800,41C1883.3333333333333,44.125,1916.6666666666667,-12.208333333333334,2000,-12C2083.3333333333335,-11.791666666666666,2116.6666666666665,37.625,2200,42C2283.3333333333335,46.375,2306.25,-65.58333333333333,2400,9C2493.75,83.58333333333333,3254.1666666666665,214.375,2650,400C2045.8333333333335,585.625,156.25,795.8333333333334,-500,900" transform="matrix(1,0,0,1,0,72)" opacity="0.21"></path><path d="M-10,10C33.75,10.416666666666666,114.58333333333334,22.625,200,12C285.41666666666663,1.375,316.66666666666663,-44.541666666666664,400,-41C483.33333333333337,-37.458333333333336,516.6666666666666,24.625,600,29C683.3333333333334,33.375,716.6666666666666,-18.75,800,-20C883.3333333333334,-21.25,916.6666666666666,21.333333333333332,1000,23C1083.3333333333333,24.666666666666668,1116.6666666666667,-17.625,1200,-12C1283.3333333333333,-6.375,1316.6666666666667,53.125,1400,50C1483.3333333333333,46.875,1516.6666666666667,-25.125,1600,-27C1683.3333333333333,-28.875,1716.6666666666667,37.875,1800,41C1883.3333333333333,44.125,1916.6666666666667,-12.208333333333334,2000,-12C2083.3333333333335,-11.791666666666666,2116.6666666666665,37.625,2200,42C2283.3333333333335,46.375,2306.25,-65.58333333333333,2400,9C2493.75,83.58333333333333,3254.1666666666665,214.375,2650,400C2045.8333333333335,585.625,156.25,795.8333333333334,-500,900" transform="matrix(1,0,0,1,0,108)" opacity="0.37"></path><path d="M-10,10C33.75,10.416666666666666,114.58333333333334,22.625,200,12C285.41666666666663,1.375,316.66666666666663,-44.541666666666664,400,-41C483.33333333333337,-37.458333333333336,516.6666666666666,24.625,600,29C683.3333333333334,33.375,716.6666666666666,-18.75,800,-20C883.3333333333334,-21.25,916.6666666666666,21.333333333333332,1000,23C1083.3333333333333,24.666666666666668,1116.6666666666667,-17.625,1200,-12C1283.3333333333333,-6.375,1316.6666666666667,53.125,1400,50C1483.3333333333333,46.875,1516.6666666666667,-25.125,1600,-27C1683.3333333333333,-28.875,1716.6666666666667,37.875,1800,41C1883.3333333333333,44.125,1916.6666666666667,-12.208333333333334,2000,-12C2083.3333333333335,-11.791666666666666,2116.6666666666665,37.625,2200,42C2283.3333333333335,46.375,2306.25,-65.58333333333333,2400,9C2493.75,83.58333333333333,3254.1666666666665,214.375,2650,400C2045.8333333333335,585.625,156.25,795.8333333333334,-500,900" transform="matrix(1,0,0,1,0,144)" opacity="0.53"></path><path d="M-10,10C33.75,10.416666666666666,114.58333333333334,22.625,200,12C285.41666666666663,1.375,316.66666666666663,-44.541666666666664,400,-41C483.33333333333337,-37.458333333333336,516.6666666666666,24.625,600,29C683.3333333333334,33.375,716.6666666666666,-18.75,800,-20C883.3333333333334,-21.25,916.6666666666666,21.333333333333332,1000,23C1083.3333333333333,24.666666666666668,1116.6666666666667,-17.625,1200,-12C1283.3333333333333,-6.375,1316.6666666666667,53.125,1400,50C1483.3333333333333,46.875,1516.6666666666667,-25.125,1600,-27C1683.3333333333333,-28.875,1716.6666666666667,37.875,1800,41C1883.3333333333333,44.125,1916.6666666666667,-12.208333333333334,2000,-12C2083.3333333333335,-11.791666666666666,2116.6666666666665,37.625,2200,42C2283.3333333333335,46.375,2306.25,-65.58333333333333,2400,9C2493.75,83.58333333333333,3254.1666666666665,214.375,2650,400C2045.8333333333335,585.625,156.25,795.8333333333334,-500,900" transform="matrix(1,0,0,1,0,180)" opacity="0.68"></path><path d="M-10,10C33.75,10.416666666666666,114.58333333333334,22.625,200,12C285.41666666666663,1.375,316.66666666666663,-44.541666666666664,400,-41C483.33333333333337,-37.458333333333336,516.6666666666666,24.625,600,29C683.3333333333334,33.375,716.6666666666666,-18.75,800,-20C883.3333333333334,-21.25,916.6666666666666,21.333333333333332,1000,23C1083.3333333333333,24.666666666666668,1116.6666666666667,-17.625,1200,-12C1283.3333333333333,-6.375,1316.6666666666667,53.125,1400,50C1483.3333333333333,46.875,1516.6666666666667,-25.125,1600,-27C1683.3333333333333,-28.875,1716.6666666666667,37.875,1800,41C1883.3333333333333,44.125,1916.6666666666667,-12.208333333333334,2000,-12C2083.3333333333335,-11.791666666666666,2116.6666666666665,37.625,2200,42C2283.3333333333335,46.375,2306.25,-65.58333333333333,2400,9C2493.75,83.58333333333333,3254.1666666666665,214.375,2650,400C2045.8333333333335,585.625,156.25,795.8333333333334,-500,900" transform="matrix(1,0,0,1,0,216)" opacity="0.84"></path><path d="M-10,10C33.75,10.416666666666666,114.58333333333334,22.625,200,12C285.41666666666663,1.375,316.66666666666663,-44.541666666666664,400,-41C483.33333333333337,-37.458333333333336,516.6666666666666,24.625,600,29C683.3333333333334,33.375,716.6666666666666,-18.75,800,-20C883.3333333333334,-21.25,916.6666666666666,21.333333333333332,1000,23C1083.3333333333333,24.666666666666668,1116.6666666666667,-17.625,1200,-12C1283.3333333333333,-6.375,1316.6666666666667,53.125,1400,50C1483.3333333333333,46.875,1516.6666666666667,-25.125,1600,-27C1683.3333333333333,-28.875,1716.6666666666667,37.875,1800,41C1883.3333333333333,44.125,1916.6666666666667,-12.208333333333334,2000,-12C2083.3333333333335,-11.791666666666666,2116.6666666666665,37.625,2200,42C2283.3333333333335,46.375,2306.25,-65.58333333333333,2400,9C2493.75,83.58333333333333,3254.1666666666665,214.375,2650,400C2045.8333333333335,585.625,156.25,795.8333333333334,-500,900" transform="matrix(1,0,0,1,0,252)" opacity="1.00"></path></g></svg>